<svg width="572" height="549" viewBox="0 0 572 549" fill="none" xmlns="http://www.w3.org/2000/svg">
<g id="lvl1">
<g id="lvl1road">
<mask id="path-1-inside-1_4:57" fill="white">
<path fill-rule="evenodd" clip-rule="evenodd" d="M0 0H129V274L514 274H519H572V530H514V373L129 373H47H0V0Z"/>
</mask>
<path fill-rule="evenodd" clip-rule="evenodd" d="M0 0H129V274L514 274H519H572V530H514V373L129 373H47H0V0Z" fill="#75ACFF"/>
<path d="M129 0H136V-7H129V0ZM0 0V-7H-7V0H0ZM129 274H122V281L129 281L129 274ZM514 274L514 281H514V274ZM572 274H579V267H572V274ZM572 530V537H579V530H572ZM514 530H507V537H514V530ZM514 373H521V366L514 366L514 373ZM129 373L129 366H129V373ZM0 373H-7V380H0V373ZM129 -7H0V7H129V-7ZM136 274V0H122V274H136ZM129 281L514 281L514 267L129 267L129 281ZM514 281H519V267H514V281ZM572 267H519V281H572V267ZM579 530V274H565V530H579ZM514 537H572V523H514V537ZM507 373V530H521V373H507ZM514 366L129 366L129 380L514 380L514 366ZM129 366H47V380H129V366ZM0 380H47V366H0V380ZM-7 0V373H7V0H-7Z" fill="#AD1919" mask="url(#path-1-inside-1_4:57)"/>
</g>
<g id="lvl1end">
<rect id="start" x="514" y="518" width="58" height="31" fill="#AD1919"/>
</g>
<g id="lvl1start">
<rect id="start_2" x="7" y="7" width="116" height="126.724" fill="black"/>
<path id="Start" d="M45.6426 73.2695C45.6426 72.7161 45.4473 72.293 45.0566 72C44.666 71.7005 43.9629 71.388 42.9473 71.0625C41.9316 70.7305 41.1276 70.4049 40.5352 70.0859C38.9206 69.2135 38.1133 68.0384 38.1133 66.5605C38.1133 65.7923 38.3281 65.1087 38.7578 64.5098C39.194 63.9043 39.8158 63.4323 40.623 63.0938C41.4368 62.7552 42.3483 62.5859 43.3574 62.5859C44.373 62.5859 45.278 62.7715 46.0723 63.1426C46.8665 63.5072 47.4818 64.0247 47.918 64.6953C48.3607 65.3659 48.582 66.1276 48.582 66.9805H45.6523C45.6523 66.3294 45.4473 65.8249 45.0371 65.4668C44.627 65.1022 44.0508 64.9199 43.3086 64.9199C42.5924 64.9199 42.0358 65.0729 41.6387 65.3789C41.2415 65.6784 41.043 66.0755 41.043 66.5703C41.043 67.0326 41.2741 67.4199 41.7363 67.7324C42.2051 68.0449 42.8919 68.3379 43.7969 68.6113C45.4635 69.1126 46.6777 69.7344 47.4395 70.4766C48.2012 71.2188 48.582 72.1432 48.582 73.25C48.582 74.4805 48.1165 75.4473 47.1855 76.1504C46.2546 76.847 45.0013 77.1953 43.4258 77.1953C42.332 77.1953 41.3359 76.9967 40.4375 76.5996C39.5391 76.196 38.8522 75.6458 38.377 74.9492C37.9082 74.2526 37.6738 73.4453 37.6738 72.5273H40.6133C40.6133 74.0964 41.5508 74.8809 43.4258 74.8809C44.1224 74.8809 44.666 74.7409 45.0566 74.4609C45.4473 74.1745 45.6426 73.7773 45.6426 73.2695ZM53.7676 63.8359V66.4336H55.5742V68.5039H53.7676V73.7773C53.7676 74.168 53.8424 74.4479 53.9922 74.6172C54.1419 74.7865 54.4284 74.8711 54.8516 74.8711C55.1641 74.8711 55.4408 74.8483 55.6816 74.8027V76.9414C55.1283 77.1107 54.5586 77.1953 53.9727 77.1953C51.9935 77.1953 50.9844 76.196 50.9453 74.1973V68.5039H49.4023V66.4336H50.9453V63.8359H53.7676ZM63.2695 77C63.1393 76.7461 63.0449 76.4303 62.9863 76.0527C62.3027 76.8145 61.4141 77.1953 60.3203 77.1953C59.2852 77.1953 58.4258 76.8958 57.7422 76.2969C57.0651 75.6979 56.7266 74.9427 56.7266 74.0312C56.7266 72.9115 57.14 72.0521 57.9668 71.4531C58.8001 70.8542 60.0013 70.5514 61.5703 70.5449H62.8691V69.9395C62.8691 69.4512 62.7422 69.0605 62.4883 68.7676C62.2409 68.4746 61.847 68.3281 61.3066 68.3281C60.8314 68.3281 60.457 68.4421 60.1836 68.6699C59.9167 68.8978 59.7832 69.2103 59.7832 69.6074H56.9609C56.9609 68.9954 57.1497 68.429 57.5273 67.9082C57.9049 67.3874 58.4388 66.9805 59.1289 66.6875C59.819 66.388 60.5938 66.2383 61.4531 66.2383C62.7552 66.2383 63.7871 66.5671 64.5488 67.2246C65.3171 67.8757 65.7012 68.7936 65.7012 69.9785V74.5586C65.7077 75.5612 65.8477 76.3197 66.1211 76.834V77H63.2695ZM60.9355 75.0371C61.3522 75.0371 61.7363 74.946 62.0879 74.7637C62.4395 74.5749 62.6999 74.3242 62.8691 74.0117V72.1953H61.8145C60.4017 72.1953 59.6497 72.6836 59.5586 73.6602L59.5488 73.8262C59.5488 74.1777 59.6725 74.4674 59.9199 74.6953C60.1673 74.9232 60.5059 75.0371 60.9355 75.0371ZM73.8066 69.0801C73.4225 69.028 73.084 69.002 72.791 69.002C71.7233 69.002 71.0234 69.3633 70.6914 70.0859V77H67.8691V66.4336H70.5352L70.6133 67.6934C71.1797 66.7233 71.9642 66.2383 72.9668 66.2383C73.2793 66.2383 73.5723 66.2806 73.8457 66.3652L73.8066 69.0801ZM79.041 63.8359V66.4336H80.8477V68.5039H79.041V73.7773C79.041 74.168 79.1159 74.4479 79.2656 74.6172C79.4154 74.7865 79.7018 74.8711 80.125 74.8711C80.4375 74.8711 80.7142 74.8483 80.9551 74.8027V76.9414C80.4017 77.1107 79.832 77.1953 79.2461 77.1953C77.2669 77.1953 76.2578 76.196 76.2188 74.1973V68.5039H74.6758V66.4336H76.2188V63.8359H79.041Z" fill="white"/>
</g>
<rect id="gamestart1" x="7" width="116" height="9" fill="black"/>
</g>
</svg>
