<svg width="572" height="549" viewBox="0 0 572 549" fill="none" xmlns="http://www.w3.org/2000/svg">
<g id="lvl1">
<g id="lvl1road">
<mask id="path-1-inside-1_4:57" fill="white">
<path fill-rule="evenodd" clip-rule="evenodd" d="M0 117H129.483V273.517L513.662 273.517H572V529.637H513.662V373.119H129.483H46.9552H0V117Z"/>
</mask>
<path fill-rule="evenodd" clip-rule="evenodd" d="M0 117H129.483V273.517L513.662 273.517H572V529.637H513.662V373.119H129.483H46.9552H0V117Z" fill="#75ACFF"/>
<path d="M129.483 117H136.483V110H129.483V117ZM0 117V110H-7V117H0ZM129.483 273.517H122.483V280.517L129.483 280.517L129.483 273.517ZM513.662 273.517L513.662 280.517H513.662V273.517ZM572 273.517H579V266.517H572V273.517ZM572 529.637V536.637H579V529.637H572ZM513.662 529.637H506.662V536.637H513.662V529.637ZM513.662 373.119H520.662V366.119H513.662V373.119ZM0 373.119H-7V380.119H0V373.119ZM129.483 110H0V124H129.483V110ZM136.483 273.517V117H122.483V273.517H136.483ZM129.483 280.517L513.662 280.517L513.662 266.517L129.483 266.517L129.483 280.517ZM572 266.517H513.662V280.517H572V266.517ZM579 529.637V273.517H565V529.637H579ZM513.662 536.637H572V522.637H513.662V536.637ZM506.662 373.119V529.637H520.662V373.119H506.662ZM513.662 366.119H129.483V380.119H513.662V366.119ZM129.483 366.119H46.9552V380.119H129.483V366.119ZM0 380.119H46.9552V366.119H0V380.119ZM-7 117V373.119H7V117H-7Z" fill="#AD1919" mask="url(#path-1-inside-1_4:57)"/>
</g>
<g id="lvl1end">
<rect id="start" x="514" y="521" width="58" height="28" fill="#AD1919"/>
</g>
<g id="lvl1start">
<rect id="start_2" width="129" height="126.724" fill="black"/>
<path id="Start" d="M49.9226 61.9937C49.9226 61.4403 49.7273 61.0171 49.3366 60.7242C48.946 60.4247 48.2429 60.1122 47.2273 59.7867C46.2116 59.4546 45.4076 59.1291 44.8152 58.8101C43.2006 57.9377 42.3933 56.7626 42.3933 55.2847C42.3933 54.5165 42.6081 53.8329 43.0378 53.2339C43.474 52.6284 44.0958 52.1564 44.903 51.8179C45.7168 51.4794 46.6283 51.3101 47.6374 51.3101C48.653 51.3101 49.558 51.4956 50.3523 51.8667C51.1465 52.2313 51.7618 52.7489 52.198 53.4195C52.6407 54.09 52.862 54.8518 52.862 55.7046H49.9323C49.9323 55.0536 49.7273 54.549 49.3171 54.1909C48.907 53.8264 48.3308 53.6441 47.5886 53.6441C46.8724 53.6441 46.3158 53.7971 45.9187 54.1031C45.5215 54.4025 45.323 54.7997 45.323 55.2945C45.323 55.7567 45.5541 56.1441 46.0163 56.4566C46.4851 56.7691 47.1719 57.062 48.0769 57.3355C49.7435 57.8368 50.9577 58.4585 51.7195 59.2007C52.4812 59.9429 52.862 60.8674 52.862 61.9742C52.862 63.2046 52.3965 64.1714 51.4655 64.8745C50.5346 65.5712 49.2813 65.9195 47.7058 65.9195C46.612 65.9195 45.6159 65.7209 44.7175 65.3238C43.8191 64.9201 43.1322 64.37 42.657 63.6734C42.1882 62.9768 41.9538 62.1695 41.9538 61.2515H44.8933C44.8933 62.8205 45.8308 63.605 47.7058 63.605C48.4024 63.605 48.946 63.465 49.3366 63.1851C49.7273 62.8986 49.9226 62.5015 49.9226 61.9937ZM58.0476 52.5601V55.1577H59.8542V57.2281H58.0476V62.5015C58.0476 62.8921 58.1224 63.1721 58.2722 63.3413C58.4219 63.5106 58.7084 63.5952 59.1316 63.5952C59.4441 63.5952 59.7208 63.5725 59.9616 63.5269V65.6656C59.4083 65.8348 58.8386 65.9195 58.2527 65.9195C56.2735 65.9195 55.2644 64.9201 55.2253 62.9214V57.2281H53.6823V55.1577H55.2253V52.5601H58.0476ZM67.5495 65.7242C67.4193 65.4702 67.3249 65.1545 67.2663 64.7769C66.5827 65.5386 65.6941 65.9195 64.6003 65.9195C63.5652 65.9195 62.7058 65.62 62.0222 65.021C61.3451 64.4221 61.0066 63.6669 61.0066 62.7554C61.0066 61.6356 61.42 60.7762 62.2468 60.1773C63.0801 59.5783 64.2813 59.2756 65.8503 59.2691H67.1491V58.6636C67.1491 58.1753 67.0222 57.7847 66.7683 57.4917C66.5209 57.1988 66.127 57.0523 65.5866 57.0523C65.1114 57.0523 64.737 57.1662 64.4636 57.3941C64.1967 57.6219 64.0632 57.9344 64.0632 58.3316H61.2409C61.2409 57.7196 61.4297 57.1532 61.8073 56.6324C62.1849 56.1115 62.7188 55.7046 63.4089 55.4117C64.099 55.1122 64.8737 54.9624 65.7331 54.9624C67.0352 54.9624 68.0671 55.2912 68.8288 55.9488C69.5971 56.5998 69.9812 57.5178 69.9812 58.7027V63.2827C69.9877 64.2853 70.1277 65.0438 70.4011 65.5581V65.7242H67.5495ZM65.2155 63.7613C65.6322 63.7613 66.0163 63.6701 66.3679 63.4878C66.7195 63.299 66.9799 63.0484 67.1491 62.7359V60.9195H66.0945C64.6817 60.9195 63.9297 61.4077 63.8386 62.3843L63.8288 62.5503C63.8288 62.9019 63.9525 63.1916 64.1999 63.4195C64.4473 63.6473 64.7859 63.7613 65.2155 63.7613ZM78.0866 57.8042C77.7025 57.7521 77.364 57.7261 77.071 57.7261C76.0033 57.7261 75.3034 58.0874 74.9714 58.8101V65.7242H72.1491V55.1577H74.8152L74.8933 56.4175C75.4597 55.4475 76.2442 54.9624 77.2468 54.9624C77.5593 54.9624 77.8523 55.0048 78.1257 55.0894L78.0866 57.8042ZM83.321 52.5601V55.1577H85.1277V57.2281H83.321V62.5015C83.321 62.8921 83.3959 63.1721 83.5456 63.3413C83.6954 63.5106 83.9818 63.5952 84.405 63.5952C84.7175 63.5952 84.9942 63.5725 85.2351 63.5269V65.6656C84.6817 65.8348 84.112 65.9195 83.5261 65.9195C81.5469 65.9195 80.5378 64.9201 80.4987 62.9214V57.2281H78.9558V55.1577H80.4987V52.5601H83.321Z" fill="white"/>
</g>
</g>
</svg>
