<svg width="984" height="705" viewBox="0 0 984 705" fill="none" xmlns="http://www.w3.org/2000/svg">
<g id="lvl2">
<g id="lvl2road">
<mask id="path-1-inside-1_4:60" fill="white">
<path fill-rule="evenodd" clip-rule="evenodd" d="M984 624H956H920H242L242 566L242 358L300 358L739 358V150L113 150V592H9.38484e-05V150L0 150L4.93939e-06 37L739 37L852 37V358V471L300 471V566H920L920 14L984 14L984 624Z"/>
</mask>
<path fill-rule="evenodd" clip-rule="evenodd" d="M984 624H956H920H242L242 566L242 358L300 358L739 358V150L113 150V592H9.38484e-05V150L0 150L4.93939e-06 37L739 37L852 37V358V471L300 471V566H920L920 14L984 14L984 624Z" fill="#75ACFF"/>
<path d="M984 624V631H991L991 624L984 624ZM242 624L235 624L235 631H242V624ZM242 566L249 566L249 566L242 566ZM242 358L242 351L235 351L235 358L242 358ZM300 358L300 365L300 365L300 358ZM739 358L739 365L746 365V358H739ZM739 150H746V143L739 143L739 150ZM113 150L113 143L106 143V150H113ZM113 592V599H120V592H113ZM9.38484e-05 592H-6.99991V599H9.38484e-05V592ZM9.38484e-05 150H7.00009V135.288L-4.41552 144.568L9.38484e-05 150ZM0 150L-7 150L-7 164.712L4.41562 155.432L0 150ZM4.93939e-06 37L4.46965e-06 30L-6.99999 30L-7 37L4.93939e-06 37ZM739 37L739 30L739 30L739 37ZM852 37H859V30L852 30L852 37ZM852 471L852 478L859 478V471H852ZM300 471L300 464L293 464V471H300ZM300 566H293V573H300V566ZM920 566V573H927L927 566L920 566ZM920 14L920 6.99997L913 6.99997L913 14L920 14ZM984 14L991 14L991 6.99998L984 6.99998L984 14ZM956 631H984V617H956V631ZM920 631H956V617H920V631ZM242 631H920V617H242V631ZM235 566L235 624L249 624L249 566L235 566ZM235 358L235 566L249 566L249 358L235 358ZM300 351L242 351L242 365L300 365L300 351ZM739 351L300 351L300 365L739 365L739 351ZM732 150V358H746V150H732ZM113 157L739 157L739 143L113 143L113 157ZM106 150V592H120V150H106ZM113 585H9.38484e-05V599H113V585ZM7.00009 592V150H-6.99991V592H7.00009ZM4.41562 155.432L4.41571 155.432L-4.41552 144.568L-4.41562 144.568L4.41562 155.432ZM-7 37L-7 150L7 150L7 37L-7 37ZM739 30L4.46965e-06 30L5.40913e-06 44L739 44L739 30ZM852 30L739 30L739 44L852 44L852 30ZM859 358V37H845V358H859ZM859 471V358H845V471H859ZM300 478L852 478L852 464L300 464L300 478ZM307 566V471H293V566H307ZM920 559H300V573H920V559ZM913 14L913 566L927 566L927 14L913 14ZM984 6.99998L920 6.99997L920 21L984 21L984 6.99998ZM991 624L991 14L977 14L977 624L991 624Z" fill="#AD1919" mask="url(#path-1-inside-1_4:60)"/>
</g>
<g id="lvl2start">
<rect id="start" y="578" width="113" height="126.724" fill="black"/>
<path id="Start" d="M41.6426 643.27C41.6426 642.716 41.4473 642.293 41.0566 642C40.666 641.701 39.9629 641.388 38.9473 641.062C37.9316 640.73 37.1276 640.405 36.5352 640.086C34.9206 639.214 34.1133 638.038 34.1133 636.561C34.1133 635.792 34.3281 635.109 34.7578 634.51C35.194 633.904 35.8158 633.432 36.623 633.094C37.4368 632.755 38.3483 632.586 39.3574 632.586C40.373 632.586 41.278 632.771 42.0723 633.143C42.8665 633.507 43.4818 634.025 43.918 634.695C44.3607 635.366 44.582 636.128 44.582 636.98H41.6523C41.6523 636.329 41.4473 635.825 41.0371 635.467C40.627 635.102 40.0508 634.92 39.3086 634.92C38.5924 634.92 38.0358 635.073 37.6387 635.379C37.2415 635.678 37.043 636.076 37.043 636.57C37.043 637.033 37.2741 637.42 37.7363 637.732C38.2051 638.045 38.8919 638.338 39.7969 638.611C41.4635 639.113 42.6777 639.734 43.4395 640.477C44.2012 641.219 44.582 642.143 44.582 643.25C44.582 644.48 44.1165 645.447 43.1855 646.15C42.2546 646.847 41.0013 647.195 39.4258 647.195C38.332 647.195 37.3359 646.997 36.4375 646.6C35.5391 646.196 34.8522 645.646 34.377 644.949C33.9082 644.253 33.6738 643.445 33.6738 642.527H36.6133C36.6133 644.096 37.5508 644.881 39.4258 644.881C40.1224 644.881 40.666 644.741 41.0566 644.461C41.4473 644.174 41.6426 643.777 41.6426 643.27ZM49.7676 633.836V636.434H51.5742V638.504H49.7676V643.777C49.7676 644.168 49.8424 644.448 49.9922 644.617C50.1419 644.786 50.4284 644.871 50.8516 644.871C51.1641 644.871 51.4408 644.848 51.6816 644.803V646.941C51.1283 647.111 50.5586 647.195 49.9727 647.195C47.9935 647.195 46.9844 646.196 46.9453 644.197V638.504H45.4023V636.434H46.9453V633.836H49.7676ZM59.2695 647C59.1393 646.746 59.0449 646.43 58.9863 646.053C58.3027 646.814 57.4141 647.195 56.3203 647.195C55.2852 647.195 54.4258 646.896 53.7422 646.297C53.0651 645.698 52.7266 644.943 52.7266 644.031C52.7266 642.911 53.14 642.052 53.9668 641.453C54.8001 640.854 56.0013 640.551 57.5703 640.545H58.8691V639.939C58.8691 639.451 58.7422 639.061 58.4883 638.768C58.2409 638.475 57.847 638.328 57.3066 638.328C56.8314 638.328 56.457 638.442 56.1836 638.67C55.9167 638.898 55.7832 639.21 55.7832 639.607H52.9609C52.9609 638.995 53.1497 638.429 53.5273 637.908C53.9049 637.387 54.4388 636.98 55.1289 636.688C55.819 636.388 56.5938 636.238 57.4531 636.238C58.7552 636.238 59.7871 636.567 60.5488 637.225C61.3171 637.876 61.7012 638.794 61.7012 639.979V644.559C61.7077 645.561 61.8477 646.32 62.1211 646.834V647H59.2695ZM56.9355 645.037C57.3522 645.037 57.7363 644.946 58.0879 644.764C58.4395 644.575 58.6999 644.324 58.8691 644.012V642.195H57.8145C56.4017 642.195 55.6497 642.684 55.5586 643.66L55.5488 643.826C55.5488 644.178 55.6725 644.467 55.9199 644.695C56.1673 644.923 56.5059 645.037 56.9355 645.037ZM69.8066 639.08C69.4225 639.028 69.084 639.002 68.791 639.002C67.7233 639.002 67.0234 639.363 66.6914 640.086V647H63.8691V636.434H66.5352L66.6133 637.693C67.1797 636.723 67.9642 636.238 68.9668 636.238C69.2793 636.238 69.5723 636.281 69.8457 636.365L69.8066 639.08ZM75.041 633.836V636.434H76.8477V638.504H75.041V643.777C75.041 644.168 75.1159 644.448 75.2656 644.617C75.4154 644.786 75.7018 644.871 76.125 644.871C76.4375 644.871 76.7142 644.848 76.9551 644.803V646.941C76.4017 647.111 75.832 647.195 75.2461 647.195C73.2669 647.195 72.2578 646.196 72.2188 644.197V638.504H70.6758V636.434H72.2188V633.836H75.041Z" fill="white"/>
</g>
<g id="lvl2end">
<rect id="start_2" x="920" width="64" height="42" fill="#AD1919"/>
</g>
</g>
</svg>
