<svg width="984" height="705" viewBox="0 0 984 705" fill="none" xmlns="http://www.w3.org/2000/svg">
<g id="lvl2">
<g id="lvl2road">
<mask id="path-1-inside-1_4:60" fill="white">
<path fill-rule="evenodd" clip-rule="evenodd" d="M984 624H956H920H242L242 566L242 358L300 358L739 358V150L113 150V705H9.38484e-05V150L-4.93939e-06 150L0 37L739 37L852 37V358V471L300 471V566H920L920 14L984 14L984 624Z"/>
</mask>
<path fill-rule="evenodd" clip-rule="evenodd" d="M984 624H956H920H242L242 566L242 358L300 358L739 358V150L113 150V705H9.38484e-05V150L-4.93939e-06 150L0 37L739 37L852 37V358V471L300 471V566H920L920 14L984 14L984 624Z" fill="#75ACFF"/>
<path d="M984 624V631H991L991 624L984 624ZM242 624L235 624L235 631H242V624ZM242 566L249 566L249 566L242 566ZM242 358L242 351L235 351L235 358L242 358ZM300 358L300 365L300 365L300 358ZM739 358L739 365L746 365V358H739ZM739 150H746V143L739 143L739 150ZM113 150L113 143L106 143V150H113ZM113 705V712H120V705H113ZM9.87878e-05 705H-6.9999V712H9.87878e-05V705ZM9.87878e-05 150H7.0001V135.749L-4.27856 144.46L9.87878e-05 150ZM0 150L-7 150L-7 164.251L4.27866 155.54L0 150ZM4.93939e-06 37L4.41545e-06 30L-6.99999 30L-7 37L4.93939e-06 37ZM739 37L739 30L739 30L739 37ZM852 37H859V30L852 30L852 37ZM852 471L852 478L859 478V471H852ZM300 471L300 464L293 464V471H300ZM300 566H293V573H300V566ZM920 566V573H927L927 566L920 566ZM920 14L920 6.99997L913 6.99997L913 14L920 14ZM984 14L991 14L991 6.99998L984 6.99998L984 14ZM956 631H984V617H956V631ZM920 631H956V617H920V631ZM242 631H920V617H242V631ZM235 566L235 624L249 624L249 566L235 566ZM235 358L235 566L249 566L249 358L235 358ZM300 351L242 351L242 365L300 365L300 351ZM739 351L300 351L300 365L739 365L739 351ZM732 150V358H746V150H732ZM113 157L739 157L739 143L113 143L113 157ZM106 150V705H120V150H106ZM113 698H9.87878e-05V712H113V698ZM7.0001 705V150H-6.9999V705H7.0001ZM4.27866 155.54L4.27875 155.54L-4.27856 144.46L-4.27866 144.46L4.27866 155.54ZM-7 37L-7 150L7 150L7 37L-7 37ZM739 30L4.41545e-06 30L5.46333e-06 44L739 44L739 30ZM852 30L739 30L739 44L852 44L852 30ZM859 358V37H845V358H859ZM859 471V358H845V471H859ZM300 478L852 478L852 464L300 464L300 478ZM307 566V471H293V566H307ZM920 559H300V573H920V559ZM913 14L913 566L927 566L927 14L913 14ZM984 6.99998L920 6.99997L920 21L984 21L984 6.99998ZM991 624L991 14L977 14L977 624L991 624Z" fill="#AD1919" mask="url(#path-1-inside-1_4:60)"/>
</g>
<g id="lvl2start">
<rect id="start" x="7" y="578" width="99" height="127" fill="black"/>
<path id="Start" d="M39.6426 643.27C39.6426 642.716 39.4473 642.293 39.0566 642C38.666 641.701 37.9629 641.388 36.9473 641.062C35.9316 640.73 35.1276 640.405 34.5352 640.086C32.9206 639.214 32.1133 638.038 32.1133 636.561C32.1133 635.792 32.3281 635.109 32.7578 634.51C33.194 633.904 33.8158 633.432 34.623 633.094C35.4368 632.755 36.3483 632.586 37.3574 632.586C38.373 632.586 39.278 632.771 40.0723 633.143C40.8665 633.507 41.4818 634.025 41.918 634.695C42.3607 635.366 42.582 636.128 42.582 636.98H39.6523C39.6523 636.329 39.4473 635.825 39.0371 635.467C38.627 635.102 38.0508 634.92 37.3086 634.92C36.5924 634.92 36.0358 635.073 35.6387 635.379C35.2415 635.678 35.043 636.076 35.043 636.57C35.043 637.033 35.2741 637.42 35.7363 637.732C36.2051 638.045 36.8919 638.338 37.7969 638.611C39.4635 639.113 40.6777 639.734 41.4395 640.477C42.2012 641.219 42.582 642.143 42.582 643.25C42.582 644.48 42.1165 645.447 41.1855 646.15C40.2546 646.847 39.0013 647.195 37.4258 647.195C36.332 647.195 35.3359 646.997 34.4375 646.6C33.5391 646.196 32.8522 645.646 32.377 644.949C31.9082 644.253 31.6738 643.445 31.6738 642.527H34.6133C34.6133 644.096 35.5508 644.881 37.4258 644.881C38.1224 644.881 38.666 644.741 39.0566 644.461C39.4473 644.174 39.6426 643.777 39.6426 643.27ZM47.7676 633.836V636.434H49.5742V638.504H47.7676V643.777C47.7676 644.168 47.8424 644.448 47.9922 644.617C48.1419 644.786 48.4284 644.871 48.8516 644.871C49.1641 644.871 49.4408 644.848 49.6816 644.803V646.941C49.1283 647.111 48.5586 647.195 47.9727 647.195C45.9935 647.195 44.9844 646.196 44.9453 644.197V638.504H43.4023V636.434H44.9453V633.836H47.7676ZM57.2695 647C57.1393 646.746 57.0449 646.43 56.9863 646.053C56.3027 646.814 55.4141 647.195 54.3203 647.195C53.2852 647.195 52.4258 646.896 51.7422 646.297C51.0651 645.698 50.7266 644.943 50.7266 644.031C50.7266 642.911 51.14 642.052 51.9668 641.453C52.8001 640.854 54.0013 640.551 55.5703 640.545H56.8691V639.939C56.8691 639.451 56.7422 639.061 56.4883 638.768C56.2409 638.475 55.847 638.328 55.3066 638.328C54.8314 638.328 54.457 638.442 54.1836 638.67C53.9167 638.898 53.7832 639.21 53.7832 639.607H50.9609C50.9609 638.995 51.1497 638.429 51.5273 637.908C51.9049 637.387 52.4388 636.98 53.1289 636.688C53.819 636.388 54.5938 636.238 55.4531 636.238C56.7552 636.238 57.7871 636.567 58.5488 637.225C59.3171 637.876 59.7012 638.794 59.7012 639.979V644.559C59.7077 645.561 59.8477 646.32 60.1211 646.834V647H57.2695ZM54.9355 645.037C55.3522 645.037 55.7363 644.946 56.0879 644.764C56.4395 644.575 56.6999 644.324 56.8691 644.012V642.195H55.8145C54.4017 642.195 53.6497 642.684 53.5586 643.66L53.5488 643.826C53.5488 644.178 53.6725 644.467 53.9199 644.695C54.1673 644.923 54.5059 645.037 54.9355 645.037ZM67.8066 639.08C67.4225 639.028 67.084 639.002 66.791 639.002C65.7233 639.002 65.0234 639.363 64.6914 640.086V647H61.8691V636.434H64.5352L64.6133 637.693C65.1797 636.723 65.9642 636.238 66.9668 636.238C67.2793 636.238 67.5723 636.281 67.8457 636.365L67.8066 639.08ZM73.041 633.836V636.434H74.8477V638.504H73.041V643.777C73.041 644.168 73.1159 644.448 73.2656 644.617C73.4154 644.786 73.7018 644.871 74.125 644.871C74.4375 644.871 74.7142 644.848 74.9551 644.803V646.941C74.4017 647.111 73.832 647.195 73.2461 647.195C71.2669 647.195 70.2578 646.196 70.2188 644.197V638.504H68.6758V636.434H70.2188V633.836H73.041Z" fill="white"/>
</g>
<g id="lvl2end">
<rect id="start_2" x="920" width="64" height="42" fill="#AD1919"/>
</g>
<rect id="gamestart2" x="7" y="696" width="99" height="9" fill="black"/>
</g>
</svg>
