<svg width="901" height="701" viewBox="0 0 901 701" fill="none" xmlns="http://www.w3.org/2000/svg">
<g id="lvl3">
<g id="lvl3road">
<mask id="path-1-inside-1_4:61" fill="white">
<path fill-rule="evenodd" clip-rule="evenodd" d="M901 0H803V312L496 312V252V239L496 136H267L51 136L38 136L0 136V366V369V409H216V520V524V570H370V552H860V671H556V701H901V682V671V520H869H860H370H267V366H229H216H51V187L267 187L267 252H380V312V398H496H803H901V0Z"/>
</mask>
<path fill-rule="evenodd" clip-rule="evenodd" d="M901 0H803V312L496 312V252V239L496 136H267L51 136L38 136L0 136V366V369V409H216V520V524V570H370V552H860V671H556V701H901V682V671V520H869H860H370H267V366H229H216H51V187L267 187L267 252H380V312V398H496H803H901V0Z" fill="#75ACFF"/>
<path d="M803 0V-7H796V0H803ZM901 0H908V-7H901V0ZM803 312L803 319L810 319V312H803ZM496 312H489V319L496 319L496 312ZM496 239L503 239L503 239L496 239ZM496 136L503 136L503 129H496V136ZM267 136L267 143H267V136ZM51 136L51 129L51 129L51 136ZM38 136L38 143L38 143L38 136ZM0 136L2.81083e-06 129L-7 129V136H0ZM0 409H-7V416H0V409ZM216 409H223V402H216V409ZM216 570H209V577H216V570ZM370 570V577H377V570H370ZM370 552V545H363V552H370ZM860 552H867V545H860V552ZM860 671V678H867V671H860ZM556 671V664H549V671H556ZM556 701H549V708H556V701ZM901 701V708H908V701H901ZM901 520H908V513H901V520ZM267 520H260V527H267V520ZM267 366H274V359H267V366ZM51 366H44V373H51V366ZM51 187L51 180L44 180V187H51ZM267 187L274 187L274 180L267 180L267 187ZM267 252L260 252L260 259H267V252ZM380 252H387V245H380V252ZM380 398H373V405H380V398ZM901 398V405H908V398H901ZM803 7H901V-7H803V7ZM810 312V0H796V312H810ZM496 319L803 319L803 305L496 305L496 319ZM489 252V312H503V252H489ZM489 239V252H503V239H489ZM489 136L489 239L503 239L503 136L489 136ZM267 143H496V129H267V143ZM51 143L267 143L267 129L51 129L51 143ZM38 143L51 143L51 129L38 129L38 143ZM-2.81083e-06 143L38 143L38 129L2.81083e-06 129L-2.81083e-06 143ZM7 366V136H-7V366H7ZM7 369V366H-7V369H7ZM7 409V369H-7V409H7ZM216 402H0V416H216V402ZM209 409V520H223V409H209ZM209 520V524H223V520H209ZM209 524V570H223V524H209ZM216 577H370V563H216V577ZM377 570V552H363V570H377ZM370 559H860V545H370V559ZM853 552V671H867V552H853ZM860 664H556V678H860V664ZM549 671V701H563V671H549ZM556 708H901V694H556V708ZM908 701V682H894V701H908ZM908 682V671H894V682H908ZM908 671V520H894V671H908ZM901 513H869V527H901V513ZM869 513H860V527H869V513ZM860 513H370V527H860V513ZM370 513H267V527H370V513ZM274 520V366H260V520H274ZM267 359H229V373H267V359ZM216 373H229V359H216V373ZM51 373H216V359H51V373ZM44 187V366H58V187H44ZM267 180L51 180L51 194L267 194L267 180ZM274 252L274 187L260 187L260 252L274 252ZM380 245H267V259H380V245ZM387 312V252H373V312H387ZM387 398V312H373V398H387ZM496 391H380V405H496V391ZM803 391H496V405H803V391ZM901 391H803V405H901V391ZM894 0V398H908V0H894Z" fill="#AD1919" mask="url(#path-1-inside-1_4:61)"/>
</g>
<g id="lvl3start">
<rect id="start" x="809" width="85" height="127" fill="black"/>
<path id="Start" d="M835.643 65.2695C835.643 64.7161 835.447 64.293 835.057 64C834.666 63.7005 833.963 63.388 832.947 63.0625C831.932 62.7305 831.128 62.4049 830.535 62.0859C828.921 61.2135 828.113 60.0384 828.113 58.5605C828.113 57.7923 828.328 57.1087 828.758 56.5098C829.194 55.9043 829.816 55.4323 830.623 55.0938C831.437 54.7552 832.348 54.5859 833.357 54.5859C834.373 54.5859 835.278 54.7715 836.072 55.1426C836.867 55.5072 837.482 56.0247 837.918 56.6953C838.361 57.3659 838.582 58.1276 838.582 58.9805H835.652C835.652 58.3294 835.447 57.8249 835.037 57.4668C834.627 57.1022 834.051 56.9199 833.309 56.9199C832.592 56.9199 832.036 57.0729 831.639 57.3789C831.242 57.6784 831.043 58.0755 831.043 58.5703C831.043 59.0326 831.274 59.4199 831.736 59.7324C832.205 60.0449 832.892 60.3379 833.797 60.6113C835.464 61.1126 836.678 61.7344 837.439 62.4766C838.201 63.2188 838.582 64.1432 838.582 65.25C838.582 66.4805 838.117 67.4473 837.186 68.1504C836.255 68.847 835.001 69.1953 833.426 69.1953C832.332 69.1953 831.336 68.9967 830.438 68.5996C829.539 68.196 828.852 67.6458 828.377 66.9492C827.908 66.2526 827.674 65.4453 827.674 64.5273H830.613C830.613 66.0964 831.551 66.8809 833.426 66.8809C834.122 66.8809 834.666 66.7409 835.057 66.4609C835.447 66.1745 835.643 65.7773 835.643 65.2695ZM843.768 55.8359V58.4336H845.574V60.5039H843.768V65.7773C843.768 66.168 843.842 66.4479 843.992 66.6172C844.142 66.7865 844.428 66.8711 844.852 66.8711C845.164 66.8711 845.441 66.8483 845.682 66.8027V68.9414C845.128 69.1107 844.559 69.1953 843.973 69.1953C841.993 69.1953 840.984 68.196 840.945 66.1973V60.5039H839.402V58.4336H840.945V55.8359H843.768ZM853.27 69C853.139 68.7461 853.045 68.4303 852.986 68.0527C852.303 68.8145 851.414 69.1953 850.32 69.1953C849.285 69.1953 848.426 68.8958 847.742 68.2969C847.065 67.6979 846.727 66.9427 846.727 66.0312C846.727 64.9115 847.14 64.0521 847.967 63.4531C848.8 62.8542 850.001 62.5514 851.57 62.5449H852.869V61.9395C852.869 61.4512 852.742 61.0605 852.488 60.7676C852.241 60.4746 851.847 60.3281 851.307 60.3281C850.831 60.3281 850.457 60.4421 850.184 60.6699C849.917 60.8978 849.783 61.2103 849.783 61.6074H846.961C846.961 60.9954 847.15 60.429 847.527 59.9082C847.905 59.3874 848.439 58.9805 849.129 58.6875C849.819 58.388 850.594 58.2383 851.453 58.2383C852.755 58.2383 853.787 58.5671 854.549 59.2246C855.317 59.8757 855.701 60.7936 855.701 61.9785V66.5586C855.708 67.5612 855.848 68.3197 856.121 68.834V69H853.27ZM850.936 67.0371C851.352 67.0371 851.736 66.946 852.088 66.7637C852.439 66.5749 852.7 66.3242 852.869 66.0117V64.1953H851.814C850.402 64.1953 849.65 64.6836 849.559 65.6602L849.549 65.8262C849.549 66.1777 849.673 66.4674 849.92 66.6953C850.167 66.9232 850.506 67.0371 850.936 67.0371ZM863.807 61.0801C863.423 61.028 863.084 61.002 862.791 61.002C861.723 61.002 861.023 61.3633 860.691 62.0859V69H857.869V58.4336H860.535L860.613 59.6934C861.18 58.7233 861.964 58.2383 862.967 58.2383C863.279 58.2383 863.572 58.2806 863.846 58.3652L863.807 61.0801ZM869.041 55.8359V58.4336H870.848V60.5039H869.041V65.7773C869.041 66.168 869.116 66.4479 869.266 66.6172C869.415 66.7865 869.702 66.8711 870.125 66.8711C870.438 66.8711 870.714 66.8483 870.955 66.8027V68.9414C870.402 69.1107 869.832 69.1953 869.246 69.1953C867.267 69.1953 866.258 68.196 866.219 66.1973V60.5039H864.676V58.4336H866.219V55.8359H869.041Z" fill="white"/>
</g>
<g id="lvl3end">
<rect id="start_2" x="531" y="671" width="36" height="30" fill="#AD1919"/>
</g>
<rect id="gamestart3" x="809" width="85" height="9" fill="black"/>
</g>
</svg>
