<svg width="901" height="701" viewBox="0 0 901 701" fill="none" xmlns="http://www.w3.org/2000/svg">
<g id="lvl3">
<g id="lvl3road">
<mask id="path-1-inside-1_4:61" fill="white">
<path fill-rule="evenodd" clip-rule="evenodd" d="M901 104H803V312L496 312V252V239L496 136L267 136L51 136H0V366V369V409H216V520V524V570H370V552L860 552V671H556V701H901V682V671V520H869H860H370H267V366H229H216H51V187L267 187L267 252H380V312V398H496H803H901V104Z"/>
</mask>
<path fill-rule="evenodd" clip-rule="evenodd" d="M901 104H803V312L496 312V252V239L496 136L267 136L51 136H0V366V369V409H216V520V524V570H370V552L860 552V671H556V701H901V682V671V520H869H860H370H267V366H229H216H51V187L267 187L267 252H380V312V398H496H803H901V104Z" fill="#75ACFF"/>
<path d="M803 104V97H796V104H803ZM901 104H908V97H901V104ZM803 312L803 319L810 319V312H803ZM496 312H489V319L496 319L496 312ZM496 239L503 239L503 239L496 239ZM496 136L503 136L503 129L496 129L496 136ZM267 136L267 143L267 143L267 136ZM51 136L51 129H51V136ZM0 136V129H-7V136H0ZM0 409H-7V416H0V409ZM216 409H223V402H216V409ZM216 570H209V577H216V570ZM370 570V577H377V570H370ZM370 552L370 545L363 545V552H370ZM860 552H867V545L860 545L860 552ZM860 671V678H867V671H860ZM556 671V664H549V671H556ZM556 701H549V708H556V701ZM901 701V708H908V701H901ZM901 520H908V513H901V520ZM267 520H260V527H267V520ZM267 366H274V359H267V366ZM51 366H44V373H51V366ZM51 187L51 180L44 180V187H51ZM267 187L274 187L274 180L267 180L267 187ZM267 252L260 252L260 259H267V252ZM380 252H387V245H380V252ZM380 398H373V405H380V398ZM901 398V405H908V398H901ZM803 111H901V97H803V111ZM810 312V104H796V312H810ZM496 319L803 319L803 305L496 305L496 319ZM489 252V312H503V252H489ZM489 239V252H503V239H489ZM489 136L489 239L503 239L503 136L489 136ZM267 143L496 143L496 129L267 129L267 143ZM51 143L267 143L267 129L51 129L51 143ZM0 143H51V129H0V143ZM7 366V136H-7V366H7ZM7 369V366H-7V369H7ZM7 409V369H-7V409H7ZM216 402H0V416H216V402ZM209 409V520H223V409H209ZM209 520V524H223V520H209ZM209 524V570H223V524H209ZM216 577H370V563H216V577ZM377 570V552H363V570H377ZM370 559L860 559L860 545L370 545L370 559ZM853 552V671H867V552H853ZM860 664H556V678H860V664ZM549 671V701H563V671H549ZM556 708H901V694H556V708ZM908 701V682H894V701H908ZM908 682V671H894V682H908ZM908 671V520H894V671H908ZM901 513H869V527H901V513ZM869 513H860V527H869V513ZM860 513H370V527H860V513ZM370 513H267V527H370V513ZM274 520V366H260V520H274ZM267 359H229V373H267V359ZM216 373H229V359H216V373ZM51 373H216V359H51V373ZM44 187V366H58V187H44ZM267 180L51 180L51 194L267 194L267 180ZM274 252L274 187L260 187L260 252L274 252ZM380 245H267V259H380V245ZM387 312V252H373V312H387ZM387 398V312H373V398H387ZM496 391H380V405H496V391ZM803 391H496V405H803V391ZM901 391H803V405H901V391ZM894 104V398H908V104H894Z" fill="#AD1919" mask="url(#path-1-inside-1_4:61)"/>
</g>
<g id="lvl3start">
<rect id="start" x="803" width="98" height="126.724" fill="black"/>
<path id="Start" d="M837.643 65.2695C837.643 64.7161 837.447 64.293 837.057 64C836.666 63.7005 835.963 63.388 834.947 63.0625C833.932 62.7305 833.128 62.4049 832.535 62.0859C830.921 61.2135 830.113 60.0384 830.113 58.5605C830.113 57.7923 830.328 57.1087 830.758 56.5098C831.194 55.9043 831.816 55.4323 832.623 55.0938C833.437 54.7552 834.348 54.5859 835.357 54.5859C836.373 54.5859 837.278 54.7715 838.072 55.1426C838.867 55.5072 839.482 56.0247 839.918 56.6953C840.361 57.3659 840.582 58.1276 840.582 58.9805H837.652C837.652 58.3294 837.447 57.8249 837.037 57.4668C836.627 57.1022 836.051 56.9199 835.309 56.9199C834.592 56.9199 834.036 57.0729 833.639 57.3789C833.242 57.6784 833.043 58.0755 833.043 58.5703C833.043 59.0326 833.274 59.4199 833.736 59.7324C834.205 60.0449 834.892 60.3379 835.797 60.6113C837.464 61.1126 838.678 61.7344 839.439 62.4766C840.201 63.2188 840.582 64.1432 840.582 65.25C840.582 66.4805 840.117 67.4473 839.186 68.1504C838.255 68.847 837.001 69.1953 835.426 69.1953C834.332 69.1953 833.336 68.9967 832.438 68.5996C831.539 68.196 830.852 67.6458 830.377 66.9492C829.908 66.2526 829.674 65.4453 829.674 64.5273H832.613C832.613 66.0964 833.551 66.8809 835.426 66.8809C836.122 66.8809 836.666 66.7409 837.057 66.4609C837.447 66.1745 837.643 65.7773 837.643 65.2695ZM845.768 55.8359V58.4336H847.574V60.5039H845.768V65.7773C845.768 66.168 845.842 66.4479 845.992 66.6172C846.142 66.7865 846.428 66.8711 846.852 66.8711C847.164 66.8711 847.441 66.8483 847.682 66.8027V68.9414C847.128 69.1107 846.559 69.1953 845.973 69.1953C843.993 69.1953 842.984 68.196 842.945 66.1973V60.5039H841.402V58.4336H842.945V55.8359H845.768ZM855.27 69C855.139 68.7461 855.045 68.4303 854.986 68.0527C854.303 68.8145 853.414 69.1953 852.32 69.1953C851.285 69.1953 850.426 68.8958 849.742 68.2969C849.065 67.6979 848.727 66.9427 848.727 66.0312C848.727 64.9115 849.14 64.0521 849.967 63.4531C850.8 62.8542 852.001 62.5514 853.57 62.5449H854.869V61.9395C854.869 61.4512 854.742 61.0605 854.488 60.7676C854.241 60.4746 853.847 60.3281 853.307 60.3281C852.831 60.3281 852.457 60.4421 852.184 60.6699C851.917 60.8978 851.783 61.2103 851.783 61.6074H848.961C848.961 60.9954 849.15 60.429 849.527 59.9082C849.905 59.3874 850.439 58.9805 851.129 58.6875C851.819 58.388 852.594 58.2383 853.453 58.2383C854.755 58.2383 855.787 58.5671 856.549 59.2246C857.317 59.8757 857.701 60.7936 857.701 61.9785V66.5586C857.708 67.5612 857.848 68.3197 858.121 68.834V69H855.27ZM852.936 67.0371C853.352 67.0371 853.736 66.946 854.088 66.7637C854.439 66.5749 854.7 66.3242 854.869 66.0117V64.1953H853.814C852.402 64.1953 851.65 64.6836 851.559 65.6602L851.549 65.8262C851.549 66.1777 851.673 66.4674 851.92 66.6953C852.167 66.9232 852.506 67.0371 852.936 67.0371ZM865.807 61.0801C865.423 61.028 865.084 61.002 864.791 61.002C863.723 61.002 863.023 61.3633 862.691 62.0859V69H859.869V58.4336H862.535L862.613 59.6934C863.18 58.7233 863.964 58.2383 864.967 58.2383C865.279 58.2383 865.572 58.2806 865.846 58.3652L865.807 61.0801ZM871.041 55.8359V58.4336H872.848V60.5039H871.041V65.7773C871.041 66.168 871.116 66.4479 871.266 66.6172C871.415 66.7865 871.702 66.8711 872.125 66.8711C872.438 66.8711 872.714 66.8483 872.955 66.8027V68.9414C872.402 69.1107 871.832 69.1953 871.246 69.1953C869.267 69.1953 868.258 68.196 868.219 66.1973V60.5039H866.676V58.4336H868.219V55.8359H871.041Z" fill="white"/>
</g>
<g id="lvl1end">
<rect id="start_2" x="531" y="671" width="36" height="30" fill="#AD1919"/>
</g>
</g>
</svg>
